<svg height="512pt" viewBox="0 0 512 511" width="512pt" xmlns="http://www.w3.org/2000/svg"><path d="m280.390625 233.15625c0 14.40625-11.679687 26.085938-26.085937 26.085938-14.410157 0-26.089844-11.679688-26.089844-26.085938 0-14.410156 11.679687-26.089844 26.089844-26.089844 14.40625 0 26.085937 11.679688 26.085937 26.089844zm0 0" fill="#f5737f"/><path d="m501.933594 381.632812c0 14.40625-11.679688 26.085938-26.085938 26.085938s-26.085937-11.679688-26.085937-26.085938 11.679687-26.085937 26.085937-26.085937 26.085938 11.679687 26.085938 26.085937zm0 0" fill="#f5737f"/><path d="m180.480469 296.757812c0 37.90625-30.730469 68.640626-68.640625 68.640626s-68.640625-30.734376-68.640625-68.640626c0-37.910156 30.730469-68.644531 68.640625-68.644531s68.640625 30.734375 68.640625 68.644531zm0 0" fill="#f2d1a5"/><path d="m213.613281 501.941406h-203.546875v-93.179687c0-23.949219 19.414063-43.363281 43.363282-43.363281h116.820312c23.949219 0 43.363281 19.414062 43.363281 43.363281zm0 0" fill="#b0e7f8"/><path d="m475.96875 23.664062c-21.195312-17.386718-52.328125-17.386718-73.527344 0-19.953125 16.371094-28.523437 46.886719-21.082031 71.4375 8.96875 29.605469 34.753906 51.265626 57.847656 70.121094 22.425781-18.265625 47.246094-38.382812 56.890625-66.730468 8.558594-25.171876.652344-57.78125-20.128906-74.828126zm0 0" fill="#f5737f"/><path d="m465.269531 70.953125c0 14.394531-11.667969 26.0625-26.0625 26.0625-14.398437 0-26.066406-11.667969-26.066406-26.0625 0-14.398437 11.667969-26.066406 26.066406-26.066406 14.394531 0 26.0625 11.667969 26.0625 26.066406zm0 0" fill="#fafafa"/><path d="m253.300781 269.28125c13.480469 23.796875 38.941407 38.859375 66.59375 38.859375 13.894531.203125 13.695313-20.40625 0-20.132813-18.632812 0-35.921875-9.277343-46.339843-24.277343 10.144531-6.410157 16.902343-17.714844 16.902343-30.574219 0-13.460938-7.402343-25.222656-18.34375-31.441406 10.171875-16.316406 28.007813-26.425782 47.785157-26.425782h119.308593c3.003907 0 5.871094-1.496093 7.964844-3.582031 21.453125-17.679687 48.152344-39.6875 58.453125-69.976562 10.125-29.753907.117188-66.664063-23.269531-85.847657-25.003907-20.511718-61.292969-20.511718-86.296875 0-22.84375 18.738282-33.078125 53.28125-24.332032 82.136719 6.757813 22.300781 22.792969 40.964844 40.34375 57.136719h-92.175781c-29.210937 0-55.3125 16.261719-68.257812 41.953125-18.695313 1.375-33.484375 17.007813-33.484375 36.046875 0 19.597656 15.675781 35.589844 35.148437 36.125zm137.6875-177.101562c-6.378906-21.050782 1.289063-47.160157 17.835938-60.734376 8.804687-7.222656 19.589843-10.832031 30.382812-10.832031 10.785157 0 21.578125 3.613281 30.378907 10.832031 16.960937 13.914063 24.417968 41.9375 16.980468 63.804688-7.800781 22.933594-28.160156 41-47.347656 56.917969-20.296875-17.007813-41.226562-36.871094-48.230469-59.988281zm-136.683593 124.953124c8.832031 0 16.019531 7.1875 16.019531 16.023438 0 8.832031-7.1875 16.019531-16.019531 16.019531-8.835938 0-16.023438-7.1875-16.023438-16.019531 0-8.835938 7.1875-16.023438 16.023438-16.023438zm0 0"/><path d="m512 381.632812c0-18.410156-13.835938-33.640624-31.65625-35.859374-6.074219-15.960938-15.152344-29.382813-26.503906-39.097657-14.472656-12.386719-31.988282-18.664062-52.066406-18.664062-12.921876 0-12.941407 20.128906 0 20.128906 15.816406 0 43.269531 5.609375 58.246093 41-12.023437 5.878906-20.324219 18.234375-20.324219 32.492187 0 13.722657 7.6875 25.683594 18.980469 31.808594-12.265625 23.5625-36.859375 38.824219-63.949219 38.824219h-171.046874v-43.503906c0-29.460938-23.96875-53.429688-53.429688-53.429688h-5.910156c16.070312-14.417969 26.207031-35.332031 26.207031-58.574219 0-43.398437-35.308594-78.707031-78.707031-78.707031-43.402344 0-78.707032 35.308594-78.707032 78.707031 0 23.242188 10.132813 44.15625 26.207032 58.574219h-5.914063c-29.457031 0-53.425781 23.96875-53.425781 53.429688v93.179687c0 5.558594 4.507812 10.066406 10.066406 10.066406h203.546875c5.558594 0 10.066407-4.507812 10.066407-10.066406v-29.546875h171.046874c36.566407 0 69.589844-21.734375 84.269532-54.753906 18.464844-1.601563 33.003906-17.132813 33.003906-36.007813zm-458.738281-84.875c0-32.300781 26.277343-58.578124 58.578125-58.578124 32.300781 0 58.578125 26.277343 58.578125 58.578124 0 32.296876-26.277344 58.574219-58.578125 58.574219-32.300782 0-58.578125-26.277343-58.578125-58.574219zm150.285156 195.121094h-39.371094v-44.210937c0-12.925781-20.128906-12.941407-20.128906 0v44.210937h-64.414063v-25.34375c0-12.925781-20.132812-12.945312-20.132812 0v25.34375h-39.371094v-83.117187c0-18.363281 14.9375-33.300781 33.300782-33.300781h116.820312c18.363281 0 33.300781 14.9375 33.300781 33.300781v83.117187zm272.300781-94.222656c-8.832031 0-16.019531-7.1875-16.019531-16.023438 0-8.832031 7.1875-16.019531 16.019531-16.019531 8.835938 0 16.023438 7.1875 16.023438 16.019531 0 8.835938-7.1875 16.023438-16.023438 16.023438zm0 0"/><path d="m475.335938 70.953125c0-19.921875-16.207032-36.128906-36.128907-36.128906s-36.128906 16.207031-36.128906 36.128906c0 19.917969 16.207031 36.128906 36.128906 36.128906s36.128907-16.207031 36.128907-36.128906zm-52.128907 0c0-8.824219 7.175781-16 16-16 8.820313 0 16 7.175781 16 16 0 8.820313-7.179687 16-16 16-8.824219 0-16-7.179687-16-16zm0 0"/><path d="m353.96875 290.960938c-3.867188 3.867187-3.867188 10.363281 0 14.230468 3.871094 3.871094 10.367188 3.867188 14.234375 0 3.757813-3.757812 3.878906-9.992187.296875-13.90625-3.808594-4.160156-10.535156-4.320312-14.53125-.324218-1.871094 1.871093 1.871094-1.871094 0 0zm0 0"/><path d="m69.5625 416.710938c-5.464844 0-10.0625 4.597656-10.0625 10.066406s4.597656 10.0625 10.0625 10.0625c5.316406 0 9.8125-4.328125 10.046875-9.625.25-5.628906-4.394531-10.503906-10.046875-10.503906zm0 0"/></svg>