<svg height="512pt" viewBox="-4 0 512 512" width="512pt" xmlns="http://www.w3.org/2000/svg"><path d="m61.5 0h381.308594v315.195312h-381.308594zm0 0" fill="#607882"/><path d="m424.359375 0v286.496094c0 5.660156-4.589844 10.25-10.25 10.25h-352.609375v18.449218h381.308594v-315.195312zm0 0" fill="#495959"/><path d="m94.300781 272.144531v-229.09375c0-5.660156 4.589844-10.25 10.25-10.25h295.207031c5.664063 0 10.25 4.589844 10.25 10.25v229.09375c0 5.660157-4.585937 10.25-10.25 10.25h-295.207031c-5.660156 0-10.25-4.589843-10.25-10.25zm0 0" fill="#93dcfc"/><path d="m394.632812 32.800781v223.96875c0 5.660157-4.585937 10.25-10.25 10.25h-290.082031v5.125c0 5.660157 4.589844 10.25 10.25 10.25h295.207031c5.664063 0 10.25-4.589843 10.25-10.25v-229.09375c0-5.660156-4.585937-10.25-10.25-10.25zm0 0" fill="#40c1fa"/><path d="m491.5 7.6875c0-4.246094-3.441406-7.6875-7.6875-7.6875h-41.003906c-4.246094 0-7.6875 3.441406-7.6875 7.6875v463.3125c0 4.246094 3.441406 7.6875 7.6875 7.6875 4.25 0 7.6875-3.441406 7.6875-7.6875v-27.566406l25.628906-25.625v53.191406c0 4.246094 3.441406 7.6875 7.6875 7.6875s7.6875-3.441406 7.6875-7.6875c0-105.921875 0-414.796875 0-463.3125zm-37.816406 268.554688 22.441406-22.4375v44.878906zm19.257812 41.003906-22.441406 22.441406v-44.882812zm-22.445312-59.5625v-44.882813l22.441406 22.441407zm3.1875-63.441406 22.441406-22.441407v44.882813zm-3.1875-18.558594v-44.882813l22.441406 22.441407zm3.1875-63.445313 22.441406-22.4375v44.878907zm-3.1875-18.558593v-44.882813l22.441406 22.441406zm25.628906-41-25.628906-25.625v-11.679688h25.628906zm-25.628906 369.007812v-44.882812l22.441406 22.441406zm3.1875-63.441406 22.441406-22.441406v44.882812zm0 0" fill="#5a5a5a"/><path d="m494.0625 512h-61.5c-5.664062 0-10.25-4.589844-10.25-10.25v-20.5c0-5.660156 4.585938-10.25 10.25-10.25h61.5c5.660156 0 10.25 4.589844 10.25 10.25v20.5c0 5.660156-4.589844 10.25-10.25 10.25zm0 0" fill="#cdcdcd"/><path d="m492.011719 471v18.449219c0 5.660156-4.589844 10.25-10.25 10.25h-59.449219v2.050781c0 5.660156 4.585938 10.25 10.25 10.25h61.5c5.660156 0 10.25-4.589844 10.25-10.25v-20.503906c0-5.660156-4.589844-10.25-10.25-10.25h-2.050781zm0 0" fill="#aaa"/><path d="m69.1875 7.6875c0-4.246094-3.441406-7.6875-7.6875-7.6875h-41c-4.246094 0-7.6875 3.441406-7.6875 7.6875v463.3125c0 4.246094 3.441406 7.6875 7.6875 7.6875s7.6875-3.441406 7.6875-7.6875v-27.566406l25.625-25.625v53.191406c0 4.246094 3.441406 7.6875 7.691406 7.6875 4.246094 0 7.6875-3.441406 7.6875-7.6875-.003906-105.921875-.003906-414.796875-.003906-463.3125zm-37.816406 268.554688 22.441406-22.4375v44.878906zm19.257812 41.003906-22.441406 22.441406v-44.882812zm-22.441406-59.5625v-44.882813l22.441406 22.441407zm3.183594-63.441406 22.441406-22.441407v44.882813zm-3.183594-18.558594v-44.882813l22.441406 22.441407zm3.183594-63.445313 22.441406-22.4375v44.878907zm-3.183594-18.558593v-44.882813l22.441406 22.441406zm25.625-41-25.625-25.625v-11.679688h25.625zm-25.625 369.007812v-44.882812l22.441406 22.441406zm3.183594-63.441406 22.441406-22.441406v44.882812zm0 0" fill="#5a5a5a"/><path d="m71.753906 512h-61.503906c-5.660156 0-10.25-4.589844-10.25-10.25v-20.5c0-5.660156 4.589844-10.25 10.25-10.25h61.503906c5.660156 0 10.25 4.589844 10.25 10.25v20.5c0 5.660156-4.589844 10.25-10.25 10.25zm0 0" fill="#cdcdcd"/><path d="m69.703125 471v18.449219c0 5.660156-4.589844 10.25-10.25 10.25h-59.453125v2.050781c0 5.660156 4.589844 10.25 10.25 10.25h61.503906c5.660156 0 10.25-4.589844 10.25-10.25v-20.503906c0-5.660156-4.589844-10.25-10.25-10.25h-2.050781zm0 0" fill="#aaa"/></svg>